<?xml version="1.0" encoding="UTF-8"?>
<svg version="1.1" xmlns="http://www.w3.org/2000/svg" width="1024" height="1024">
<path d="M0 0 C31.68 0 63.36 0 96 0 C107.56347754 21.97060732 107.56347754 21.97060732 112.61300659 32.10159302 C112.98447689 32.84625446 113.35594719 33.59091591 113.73867416 34.35814285 C114.31493231 35.51347078 114.31493231 35.51347078 114.90283203 36.69213867 C115.73843448 38.36362679 116.5742149 40.03502595 117.41015625 41.7063446 C119.64735778 46.18046455 121.88211577 50.65580073 124.1163888 55.13138366 C126.47341786 59.85177331 128.83277401 64.5709996 131.19186401 69.2903595 C135.65310631 78.21593494 140.11231307 87.14252567 144.5707587 96.06949836 C149.61978998 106.17873369 154.67108583 116.28683684 159.7225821 126.3948406 C168.36950109 143.69734414 177.01484649 161.00063309 185.65805054 178.30499268 C189.20334068 185.40279295 192.74935405 192.50023052 196.29734802 199.59667969 C196.6131273 200.2283114 196.92890659 200.85994312 197.25425494 201.51071519 C200.1190325 207.23996613 202.98878432 212.96672171 205.85935974 218.69306946 C208.40434483 223.77063038 210.94720626 228.8492544 213.4898901 233.92796803 C215.40357202 237.75012095 217.31800685 241.57189295 219.23413086 245.39282227 C234.87187822 276.57841924 234.87187822 276.57841924 239.96604919 287.57954407 C241.98368617 291.92529606 244.0975443 296.217309 246.24415588 300.50085449 C246.96954071 301.94949871 247.69485765 303.39817692 248.4201231 304.84688091 C249.03161947 306.06798661 249.03161947 306.06798661 249.6554693 307.31376112 C252.264836 312.52701678 254.86974635 317.7425003 257.47543335 322.95759583 C258.72129018 325.45084019 259.9671926 327.94406178 261.21308899 330.43728638 C261.87314241 331.75817449 262.53319502 333.07906302 263.19324684 334.39995193 C273.25029565 354.5259299 283.30799771 374.6515813 293.36709595 394.77653503 C293.7780816 395.59878247 294.18906726 396.42102991 294.61250703 397.26819394 C298.85488624 405.75577671 303.09734298 414.24332072 307.33987971 422.73082476 C309.51306028 427.07843599 311.68622312 431.42605607 313.859375 435.77368164 C314.50808488 437.07149487 314.50808488 437.07149487 315.16990001 438.39552655 C322.17669907 452.41347877 329.18208345 466.43213752 336.18695109 480.45105497 C343.4020188 494.89056816 350.6186242 509.32931207 357.83663332 523.76735514 C362.27595149 532.6473562 366.71409738 541.52794105 371.15069307 550.40930261 C374.19509642 556.50342787 377.24100361 562.5968 380.28805111 568.6896036 C382.04019119 572.19324869 383.79171008 575.69720031 385.5414257 579.20205688 C392.2000036 592.53887287 398.88611218 605.85388965 405.89510536 619.01107311 C409.07683157 624.99876345 412.08949794 631.07367992 415.08203125 637.15771484 C415.74441113 638.48705488 416.42064684 639.80952222 417.10546875 641.12744141 C417.47027344 641.83433105 417.83507812 642.5412207 418.2109375 643.26953125 C418.54657715 643.91124268 418.8822168 644.5529541 419.22802734 645.21411133 C420.23447343 647.542433 420.31261206 649.49910349 420 652 C419.67 651.34 419.34 650.68 419 650 C418.49243164 650.16298584 417.98486328 650.32597168 417.46191406 650.49389648 C414.14616462 651.17552566 410.99415392 651.11108791 407.609375 651.09765625 C406.90476135 651.0962413 406.20014771 651.09482635 405.47418213 651.09336853 C403.23274416 651.08778933 400.99140757 651.07524073 398.75 651.0625 C397.22656395 651.05748231 395.70312632 651.05291987 394.1796875 651.04882812 C390.45309228 651.03782674 386.72655604 651.02057646 383 651 C383 651.33 383 651.66 383 652 C379 652 375 652 371 652 C371 651.34 371 650.68 371 650 C370.505 650.165 370.01 650.33 369.5 650.5 C365.99979192 651.20004162 362.56315568 651 359 651 C358.2575 651.185625 357.515 651.37125 356.75 651.5625 C355 652 355 652 353.20091248 651.53224182 C350.72916275 650.93450402 348.57749909 650.89637886 346.03540039 650.92163086 C345.05080338 650.92750717 344.06620636 650.93338348 343.05177307 650.93943787 C341.99441452 650.94782181 340.93705597 650.95620575 339.84765625 650.96484375 C337.60481313 650.96113189 335.36197277 650.95520427 333.11914062 650.94726562 C329.58528985 650.93669186 326.05346015 650.93759781 322.51977539 650.97583008 C319.107116 651.00889802 315.69780614 650.99139222 312.28515625 650.96484375 C311.22982193 650.98739731 310.17448761 651.00995087 309.08717346 651.03318787 C302.0543399 650.91792255 302.0543399 650.91792255 299.43681335 648.6390686 C298.03507906 646.50159016 297.03387115 644.33880697 296 642 C294.9082215 639.8828636 293.81239086 637.76781436 292.71362305 635.65429688 C291.4698068 633.18066027 290.24168129 630.69929742 289.01171875 628.21875 C288.34335663 626.87828194 287.67463295 625.5379941 287.00556946 624.19787598 C285.25101006 620.68116572 283.50125537 617.16208681 281.75256348 613.64245605 C279.99738672 610.11178473 278.2377989 606.58331388 276.47851562 603.0546875 C273.80765254 597.69650913 271.13888438 592.33729407 268.47216797 586.97705078 C265.73201607 581.46944007 262.98885904 575.96334979 260.23828125 570.4609375 C259.39777222 568.77943604 259.39777222 568.77943604 258.5402832 567.06396484 C256.38948196 562.78554424 254.21449108 558.5197778 252.03125 554.2578125 C251 552 251 552 251 550 C250.34 549.67 249.68 549.34 249 549 C248.12291145 547.03532165 247.25386317 545.06684138 246.4140625 543.0859375 C244.18824456 538.22848951 241.62407634 533.55343906 239.08569336 528.85351562 C238.70292236 528.14130859 238.32015137 527.42910156 237.92578125 526.6953125 C237.57942627 526.05609863 237.23307129 525.41688477 236.8762207 524.75830078 C236 523 236 523 235 520 C228.73948609 505.7059101 221.61315369 491.63123181 213.76953125 478.140625 C212 475 212 475 211 472 C209.23497664 468.07095807 207.38723361 464.18152944 205.53515625 460.29296875 C204.92765322 459.01277996 204.32446674 457.73053399 203.72558594 456.44628906 C202.86071765 454.59218613 201.98272792 452.74484024 201.1015625 450.8984375 C200.31773193 449.23820557 200.31773193 449.23820557 199.51806641 447.54443359 C198.19843453 444.7035461 198.19843453 444.7035461 195 444 C194.9071875 442.58847656 194.9071875 442.58847656 194.8125 441.1484375 C194.04262636 435.820805 191.45920569 431.34958845 189 426.625 C188.25459961 425.16308228 188.25459961 425.16308228 187.49414062 423.67163086 C184.21218647 417.25952869 180.83061678 410.90210528 177.42260742 404.55639648 C173.1929583 396.60758935 169.38615043 388.45530137 165.53125 380.3203125 C162.77326193 374.50268142 159.92367861 368.73633144 157 363 C156.34 363 155.68 363 155 363 C154.87759162 362.26776278 154.75518324 361.53552555 154.62906551 360.78109932 C154.01535863 358.06790052 153.17675077 355.98117727 151.93495178 353.50241089 C151.50207855 352.63109528 151.06920532 351.75977966 150.62321472 350.86206055 C150.1469313 349.9187085 149.67064789 348.97535645 149.17993164 348.00341797 C148.42839813 346.49728439 148.42839813 346.49728439 147.66168213 344.96072388 C146.00029893 341.63494551 144.33034494 338.3135514 142.66015625 334.9921875 C141.49680137 332.66853834 140.33392106 330.34465154 139.17149353 328.02053833 C136.7282843 323.13781339 134.28058364 318.25736223 131.82983398 313.37841797 C128.71444011 307.17624973 125.60626967 300.97049266 122.50052738 294.76348686 C119.51487551 288.79664788 116.52490836 282.83197283 113.53515625 276.8671875 C112.97645403 275.75166378 112.41775181 274.63614006 111.84211922 273.48681259 C105.7180199 261.26519401 99.53075132 249.08575937 93.11988831 237.01176453 C89.94790667 231.03269611 86.9033006 224.99046141 83.875 218.9375 C83.30007813 217.79990234 82.72515625 216.66230469 82.1328125 215.49023438 C81.59140625 214.40935547 81.05 213.32847656 80.4921875 212.21484375 C80.01120605 211.25698975 79.53022461 210.29913574 79.03466797 209.31225586 C78 207 78 207 78 205 C77.34 204.67 76.68 204.34 76 204 C74.78516709 201.60205306 73.66316825 199.20061859 72.5625 196.75 C67.66654199 186.11126818 62.30290475 175.71986092 56.9375 165.3125 C56.49882599 164.4611145 56.06015198 163.609729 55.60818481 162.73254395 C53.07611787 157.81962588 50.53983679 152.90890546 48 148 C45.78659321 150.81562827 44.02128544 153.65186527 42.36328125 156.82421875 C41.8724707 157.76193115 41.38166016 158.69964355 40.87597656 159.66577148 C40.3600293 160.66294189 39.84408203 161.6601123 39.3125 162.6875 C38.7772168 163.7175415 38.24193359 164.74758301 37.69042969 165.80883789 C34.25200696 172.4660006 30.94936393 179.16925611 27.8112793 185.97265625 C25.21326091 191.60180994 22.45512361 197.14064279 19.61230469 202.65014648 C17.72351204 206.35819075 16.21093802 210.01858258 15 214 C14.34 214 13.68 214 13 214 C12.73962448 214.84812759 12.47924896 215.69625519 12.21098328 216.57008362 C10.94158223 220.16545897 9.3611529 223.49541909 7.62426758 226.87866211 C6.89966514 228.30912994 6.17528325 229.7397095 5.45108032 231.17037964 C4.86039953 232.33255068 4.86039953 232.33255068 4.2577858 233.51819992 C1.95412364 238.06367096 -0.31975071 242.62407699 -2.59887695 247.18188477 C-3.63410048 249.2493739 -4.66944848 251.31680072 -5.70491028 253.38417053 C-9.7440677 261.45023091 -13.78123967 269.51728488 -17.81814289 277.58447361 C-20.86619327 283.67543515 -23.91499934 289.76601624 -26.96557617 295.85571289 C-29.94633809 301.80604967 -32.92489691 307.75748473 -35.90221214 313.70954704 C-37.02279174 315.94888626 -38.14406403 318.18787901 -39.26610756 320.42648506 C-45.32839743 332.52261198 -51.30160175 344.65264144 -57.11417866 356.87086582 C-60.81759906 364.64760783 -64.62330445 372.36818276 -68.49386597 380.06289673 C-69.61724024 382.29633172 -70.73772316 384.53119993 -71.85766602 386.76635742 C-74.63468837 392.30735739 -77.41619143 397.84610457 -80.19763184 403.3848877 C-82.94661979 408.85957424 -85.69366977 414.3352265 -88.4375 419.8125 C-88.81607147 420.56812225 -89.19464294 421.32374451 -89.58468628 422.1022644 C-95.07401882 433.06659779 -100.43717841 444.08371389 -105.69262695 455.16235352 C-108.68532365 461.46232517 -111.80591527 467.69546736 -114.95062256 473.92059326 C-116.97079896 477.92369859 -118.97848378 481.933083 -120.98828125 485.94140625 C-121.41866699 486.7994838 -121.84905273 487.65756134 -122.29248047 488.54164124 C-130.59366798 505.0955325 -138.87621017 521.64874443 -146.77294922 538.40039062 C-149.06341851 543.25294077 -151.37509551 548.09537311 -153.6875 552.9375 C-154.14761475 553.90147705 -154.60772949 554.8654541 -155.08178711 555.85864258 C-158.03948095 562.03874732 -161.06614392 568.17927484 -164.1574707 574.29345703 C-166.4899781 578.92510774 -168.69528361 583.60733774 -170.875 588.3125 C-173.94302474 594.91469204 -177.25463011 601.34791207 -180.71728516 607.75097656 C-183.65090523 613.24751482 -186.35248978 618.827645 -188.984375 624.47265625 C-189.69441626 625.9831882 -190.40470436 627.49360414 -191.11523438 629.00390625 C-192.18288729 631.27427807 -193.24286791 633.54679961 -194.28051758 635.83105469 C-195.25749487 637.98092402 -196.25907641 640.11775721 -197.265625 642.25390625 C-197.69654449 643.2307412 -197.69654449 643.2307412 -198.13616943 644.22731018 C-199.63141739 647.34223578 -200.67472828 648.83535664 -203.78881836 650.41162109 C-207.31165806 651.05710453 -210.53129166 651.20963321 -214.11328125 651.16015625 C-214.76830124 651.15495468 -215.42332123 651.14975311 -216.09819031 651.14439392 C-218.1698629 651.12672036 -220.24102008 651.09553373 -222.3125 651.0625 C-224.40177928 651.03488626 -226.49099136 651.01021814 -228.58036804 650.99131775 C-230.46291305 650.97348844 -232.3453601 650.9460849 -234.2277832 650.91821289 C-236.90874872 650.68009973 -236.90874872 650.68009973 -238 652 C-239.4346959 652.09894455 -240.87440397 652.12970735 -242.3125 652.125 C-243.09238281 652.12757813 -243.87226563 652.13015625 -244.67578125 652.1328125 C-246.91379173 652.00492619 -248.83545851 651.54459679 -251 651 C-251.66 651.165 -252.32 651.33 -253 651.5 C-255.37609195 652.09402299 -256.65609195 651.58597701 -259 651 C-261.18703385 651.37907282 -261.18703385 651.37907282 -263 652 C-263 651.67 -263 651.34 -263 651 C-263.60863892 651.00222061 -264.21727783 651.00444122 -264.84436035 651.00672913 C-271.20385143 651.02892701 -277.56333141 651.04396695 -283.92285156 651.05493164 C-286.29329882 651.05994692 -288.66374301 651.06676073 -291.03417969 651.07543945 C-294.44987753 651.08762813 -297.86553431 651.09325649 -301.28125 651.09765625 C-302.33364868 651.10281754 -303.38604736 651.10797882 -304.47033691 651.11329651 C-310.07912067 651.11371996 -315.45252479 650.83850436 -321 650 C-320.39779675 645.62181963 -318.7771894 642.46380313 -316.625 638.625 C-313.08757231 632.19213425 -309.87779923 625.64070455 -306.75 619 C-303.11317767 611.30851034 -299.34681 603.71143927 -295.375 596.1875 C-290.19795341 586.37858646 -285.1994198 576.48756366 -280.25 566.5625 C-279.8978241 565.8562851 -279.54564819 565.15007019 -279.18280029 564.42245483 C-277.80654233 561.66161622 -276.43082729 558.90051072 -275.05700684 556.13845825 C-273.3448049 552.69635362 -271.6283931 549.25647467 -269.90283203 545.82104492 C-266.47718854 538.99861414 -263.09187987 532.16417558 -259.83076477 525.26100159 C-255.44489214 516.00127312 -250.91992786 506.838331 -246.15234375 497.76953125 C-236.02120867 478.35150044 -226.28952459 458.72995699 -216.50317383 439.13671875 C-213.73162527 433.58789571 -210.9564539 428.0408937 -208.18023205 422.49440765 C-206.00723779 418.15206327 -203.83617973 413.80875301 -201.66567421 409.46516418 C-200.64379527 407.42074921 -199.62134439 405.37661998 -198.59825706 403.33280945 C-193.35180685 392.84939147 -188.18052921 382.34073906 -183.19068718 371.73261929 C-179.94734029 364.85051997 -176.56372812 358.04574774 -173.13586807 351.25407791 C-170.91220168 346.8413143 -168.7042653 342.42065576 -166.49291992 338.00170898 C-165.47785496 335.97469807 -164.46273198 333.9477162 -163.44755554 331.92076111 C-159.48795745 324.01382572 -155.5303616 316.10588845 -151.57300854 308.19782925 C-148.58546424 302.22794979 -145.59717188 296.2584478 -142.60717773 290.28979492 C-139.68484669 284.45612953 -136.76456597 278.62144172 -133.84560585 272.78608894 C-132.74735524 270.59140697 -131.64841225 268.39707129 -130.54869652 266.20312309 C-124.01886307 253.1747385 -117.60731118 240.09879238 -111.35498047 226.93481445 C-108.26319923 220.4324708 -105.05251657 213.99221031 -101.8125 207.5625 C-100.69399332 205.334644 -99.57550389 203.10677934 -98.45703125 200.87890625 C-97.61821411 199.20985229 -97.61821411 199.20985229 -96.76245117 197.50708008 C-96.18084229 196.34974365 -95.5992334 195.19240723 -95 194 C-94.68970856 193.38281097 -94.37941711 192.76562195 -94.0597229 192.12973022 C-88.81306824 181.6878279 -83.66174283 171.20210968 -78.5625 160.6875 C-78.19182404 159.92408295 -77.82114807 159.16066589 -77.4392395 158.37411499 C-72.92113259 149.06841199 -68.40606004 139.7615603 -64.03930664 130.38354492 C-60.51267915 122.84784186 -56.73369612 115.43447171 -53 108 C-49.98950546 102.00158678 -46.98055045 96.00240437 -43.97363281 90.00219727 C-43.07885033 88.21765371 -42.18334938 86.4334702 -41.28710938 84.6496582 C-35.44906128 73.02805331 -29.74261165 61.35425101 -24.1862793 49.59521484 C-21.29951444 43.49828577 -18.27341201 37.47281931 -15.23535156 31.45019531 C-12.80383487 26.62752702 -10.37931715 21.80135788 -7.95864868 16.97323608 C-7.07522693 15.21286068 -6.1893644 13.45371083 -5.3034668 11.69458008 C-4.76117432 10.61329834 -4.21888184 9.5320166 -3.66015625 8.41796875 C-2.92744507 6.96040161 -2.92744507 6.96040161 -2.17993164 5.47338867 C-0.91750433 2.95760778 -0.91750433 2.95760778 0 0 Z M-245 650 C-241 651 -241 651 -241 651 Z " fill="#7329B3" transform="translate(464,187)"/>
<path d="M0 0 C0.33 0.66 0.66 1.32 1 2 C1.99 2.495 1.99 2.495 3 3 C-1.77560497 11.15167533 -6.57367817 19.28979801 -11.40234375 27.41015625 C-11.98809425 28.39525429 -11.98809425 28.39525429 -12.5856781 29.4002533 C-13.39497198 30.76123455 -14.20427283 32.12221166 -15.01358032 33.48318481 C-21.84651381 44.97428498 -28.63780785 56.48694516 -35.35888672 68.04394531 C-38.66289223 73.72103112 -41.9978286 79.37637823 -45.39355469 84.99902344 C-48.54883367 90.22916344 -51.65787807 95.48629391 -54.76586914 100.74462891 C-60.78209665 110.92330027 -66.8328577 121.07695889 -73.02734375 131.1484375 C-75.39214148 134.99672131 -77.73210951 138.8597311 -80.06640625 142.7265625 C-87.85057322 155.6138405 -95.69251395 168.44008589 -104 181 C-107.6397629 179.55495834 -108.99800257 177.89093786 -110.9453125 174.53515625 C-111.72455078 173.21161133 -111.72455078 173.21161133 -112.51953125 171.86132812 C-113.04933594 170.93771484 -113.57914062 170.01410156 -114.125 169.0625 C-115.18975051 167.24067868 -116.25484036 165.41905563 -117.3203125 163.59765625 C-117.78711426 162.78820557 -118.25391602 161.97875488 -118.73486328 161.14477539 C-121.09129245 157.1499413 -122.95343023 155.23626224 -127 153 C-126.67 152.01 -126.34 151.02 -126 150 C-126.81544662 147.98191725 -126.81544662 147.98191725 -128.17578125 145.89453125 C-128.66876709 145.0845166 -129.16175293 144.27450195 -129.66967773 143.43994141 C-130.21180908 142.57288574 -130.75394043 141.70583008 -131.3125 140.8125 C-131.86429932 139.91192871 -132.41609863 139.01135742 -132.98461914 138.08349609 C-136.65872194 132.10269388 -140.3931051 126.15867058 -144.13793945 120.22192383 C-148.29326829 113.60350757 -152.23291825 106.86045833 -156.18994141 100.12231445 C-159.32198078 94.80170404 -162.50760792 89.52730336 -165.8125 84.3125 C-170.20303274 77.37388214 -174.39003652 70.32152909 -178.5625 63.25 C-184.27567276 53.56875292 -190.0396673 43.92066588 -195.875 34.3125 C-196.23239258 33.72362 -196.58978516 33.13473999 -196.95800781 32.52801514 C-201.66212606 24.78152452 -206.40112304 17.05765766 -211.31005859 9.4387207 C-214 5.21397252 -214 5.21397252 -214 3 C-214.99 2.67 -215.98 2.34 -217 2 C-214.4274782 0.7137391 -212.57624387 0.86595922 -209.69580078 0.85473633 C-208.5877005 0.84835648 -207.47960022 0.84197662 -206.33792114 0.83540344 C-205.13586029 0.83429062 -203.93379944 0.8331778 -202.6953125 0.83203125 C-201.46465057 0.82870285 -200.23398865 0.82537445 -198.96603394 0.82194519 C-196.3583819 0.81687435 -193.75072336 0.81453691 -191.14306641 0.81469727 C-188.46786758 0.81477863 -185.79283958 0.80782409 -183.11767578 0.79418945 C-179.26850114 0.77590528 -175.41952618 0.77096223 -171.5703125 0.76953125 C-170.37230011 0.76234573 -169.17428772 0.75516022 -167.93997192 0.74775696 C-166.82556732 0.75083359 -165.71116272 0.75391022 -164.56298828 0.75708008 C-163.58306915 0.75565506 -162.60315002 0.75423004 -161.59353638 0.75276184 C-158.85322659 1.0139917 -157.28769091 1.48955815 -155 3 C-153.33313823 5.37162263 -151.83964094 7.69696904 -150.375 10.1875 C-149.48892684 11.6496196 -148.60085641 13.11053042 -147.7109375 14.5703125 C-147.26073242 15.3118457 -146.81052734 16.05337891 -146.34667969 16.81738281 C-144.30958859 20.11897715 -142.16498288 23.34382103 -140 26.5625 C-139.58145752 27.18648682 -139.16291504 27.81047363 -138.73168945 28.45336914 C-137.48937433 30.30331498 -136.24475577 32.15169585 -135 34 C-125.21152223 48.58640784 -115.61508266 63.2990213 -106 78 C-102.49192349 74.62141008 -99.99928793 71.02916706 -97.5 66.875 C-93.9100656 61.01911186 -90.21404195 55.25805896 -86.375 49.5625 C-80.08389095 40.20606696 -74.01689233 30.71041152 -67.95703125 21.203125 C-67.29566162 20.2138501 -66.63429199 19.2245752 -65.95288086 18.20532227 C-64.48427768 15.79485956 -63.42907992 13.72507788 -62.37719727 11.15209961 C-60.56151538 7.08556951 -58.77312147 3.54013272 -55 1 C-47.07735355 -1.34224006 -38.45133301 -0.3526453 -30.3125 0.0625 C-28.0437844 0.12421943 -25.77488756 0.17961909 -23.50585938 0.22851562 C-6.68397968 0.6617932 -6.68397968 0.6617932 0 2 C0 1.34 0 0.68 0 0 Z M-125 151 C-124 153 -124 153 -124 153 Z " fill="#6F26B0" transform="translate(617,581)"/>
<path d="M0 0 C2.57555794 2.30094947 3.90596863 4.53112186 5.34765625 7.65625 C5.78295654 8.58687256 6.21825684 9.51749512 6.66674805 10.47631836 C7.12734619 11.4741333 7.58794434 12.47194824 8.0625 13.5 C11.94852027 21.77941988 15.96621447 29.94914931 20.29907227 38.00390625 C22.82670598 42.71612586 25.25282096 47.47428702 27.63793945 52.26000977 C28.35560104 53.69768521 29.07327832 55.13535281 29.79096985 56.57301331 C30.15763575 57.30794069 30.52430164 58.04286808 30.90207863 58.80006599 C32.62800462 62.25834942 34.35706134 65.71506577 36.0859375 69.171875 C36.78728881 70.57453593 37.48862316 71.97720535 38.18994141 73.37988281 C38.54582336 74.09164673 38.90170532 74.80341064 39.26837158 75.53674316 C74.89766439 146.79532878 110.52695719 218.05391439 146.15625 289.3125 C146.92702881 290.85398964 146.92702881 290.85398964 147.71337891 292.42662048 C148.73142927 294.46281219 149.74933476 296.49907633 150.76708984 298.53541565 C152.9481335 302.89892433 155.13029736 307.26183572 157.3203125 311.62084961 C161.30600728 319.55860583 165.19384769 327.5368488 169 335.5625 C172.86629216 343.66871249 176.85878625 351.6597085 181.14453125 359.55078125 C187.90957233 372.12663656 193.88888758 385.09876266 200 398 C238.28 398 276.56 398 316 398 C311.545 389.09 307.09 380.18 302.5 371 C298.29101562 362.58203125 298.29101562 362.58203125 296.56362915 359.12713623 C295.40048855 356.8009407 294.23722735 354.47480579 293.07382202 352.14874268 C290.56588902 347.13419227 288.05815983 342.11955718 285.55908203 337.10058594 C281.41169944 328.77443503 277.17229225 320.49993805 272.875 312.25 C265.93518192 298.89154295 259.17652175 285.44822409 252.47607422 271.96826172 C250.53205175 268.05899523 248.57908917 264.15424062 246.625 260.25 C246.00910673 259.01693101 245.39322106 257.78385821 244.77734375 256.55078125 C243.56528639 254.12933038 242.34970683 251.70999003 241.12890625 249.29296875 C237.18745627 241.47302806 233.37571349 233.60081355 229.625 225.6875 C225.79765445 217.62013388 221.78892262 209.6840019 217.57446289 201.81274414 C214.37533665 195.80594593 211.42711502 189.70570547 208.59887695 183.51611328 C207.27537135 180.63267278 205.91911854 177.86611459 204.27734375 175.1484375 C203 173 203 173 203 171 C203.66 171 204.32 171 205 171 C205.46492544 171.93077268 205.92985088 172.86154535 206.40886497 173.82052326 C217.75947378 196.54401192 229.11243282 219.26632517 240.46780968 241.98743153 C245.95928918 252.97553097 251.45002449 263.96400106 256.93896484 274.95336914 C261.72715111 284.53975764 266.5167776 294.12542498 271.30808318 303.71025485 C273.84131486 308.77801365 276.37385909 313.84611317 278.90467453 318.91507912 C281.29468272 323.70196521 283.686639 328.48787307 286.07999039 333.27308846 C286.95050058 335.01438032 287.8203437 336.7560059 288.68940735 338.49802017 C293.53392937 348.20763725 298.46087913 357.86550687 303.54767549 367.45079595 C307.17745577 374.2943933 310.66302742 381.20663475 314.08203125 388.15771484 C314.74441113 389.48705488 315.42064684 390.80952222 316.10546875 392.12744141 C316.47027344 392.83433105 316.83507812 393.5412207 317.2109375 394.26953125 C317.54657715 394.91124268 317.8822168 395.5529541 318.22802734 396.21411133 C319.23447343 398.542433 319.31261206 400.49910349 319 403 C318.67 402.34 318.34 401.68 318 401 C317.49243164 401.16298584 316.98486328 401.32597168 316.46191406 401.49389648 C313.14616462 402.17552566 309.99415392 402.11108791 306.609375 402.09765625 C305.90476135 402.0962413 305.20014771 402.09482635 304.47418213 402.09336853 C302.23274416 402.08778933 299.99140757 402.07524073 297.75 402.0625 C296.22656395 402.05748231 294.70312632 402.05291987 293.1796875 402.04882812 C289.45309228 402.03782674 285.72655604 402.02057646 282 402 C282 402.33 282 402.66 282 403 C278 403 274 403 270 403 C270 402.34 270 401.68 270 401 C269.505 401.165 269.01 401.33 268.5 401.5 C264.99979192 402.20004162 261.56315568 402 258 402 C257.2575 402.185625 256.515 402.37125 255.75 402.5625 C254 403 254 403 252.20091248 402.53224182 C249.72916275 401.93450402 247.57749909 401.89637886 245.03540039 401.92163086 C243.55850487 401.93044533 243.55850487 401.93044533 242.05177307 401.93943787 C240.46573524 401.95201378 240.46573524 401.95201378 238.84765625 401.96484375 C236.60481313 401.96113189 234.36197277 401.95520427 232.11914062 401.94726562 C228.58528985 401.93669186 225.05346015 401.93759781 221.51977539 401.97583008 C218.107116 402.00889802 214.69780614 401.99139222 211.28515625 401.96484375 C209.70215477 401.99867409 209.70215477 401.99867409 208.08717346 402.03318787 C201.0543399 401.91792255 201.0543399 401.91792255 198.43681335 399.6390686 C197.03507906 397.50159016 196.03387115 395.33880697 195 393 C193.9082215 390.8828636 192.81239086 388.76781436 191.71362305 386.65429688 C190.4698068 384.18066027 189.24168129 381.69929742 188.01171875 379.21875 C187.34335663 377.87828194 186.67463295 376.5379941 186.00556946 375.19787598 C184.25101006 371.68116572 182.50125537 368.16208681 180.75256348 364.64245605 C178.99738672 361.11178473 177.2377989 357.58331388 175.47851562 354.0546875 C172.80765254 348.69650913 170.13888438 343.33729407 167.47216797 337.97705078 C164.73201607 332.46944007 161.98885904 326.96334979 159.23828125 321.4609375 C158.67794189 320.33993652 158.11760254 319.21893555 157.5402832 318.06396484 C155.38948196 313.78554424 153.21449108 309.5197778 151.03125 305.2578125 C150 303 150 303 150 301 C149.34 300.67 148.68 300.34 148 300 C147.12291145 298.03532165 146.25386317 296.06684138 145.4140625 294.0859375 C143.18824456 289.22848951 140.62407634 284.55343906 138.08569336 279.85351562 C137.70292236 279.14130859 137.32015137 278.42910156 136.92578125 277.6953125 C136.57942627 277.05609863 136.23307129 276.41688477 135.8762207 275.75830078 C135 274 135 274 134 271 C127.73948609 256.7059101 120.61315369 242.63123181 112.76953125 229.140625 C111 226 111 226 110 223 C108.23497664 219.07095807 106.38723361 215.18152944 104.53515625 211.29296875 C103.92765322 210.01277996 103.32446674 208.73053399 102.72558594 207.44628906 C101.86071765 205.59218613 100.98272792 203.74484024 100.1015625 201.8984375 C99.57900879 200.79161621 99.05645508 199.68479492 98.51806641 198.54443359 C97.19843453 195.7035461 97.19843453 195.7035461 94 195 C93.938125 194.05898438 93.87625 193.11796875 93.8125 192.1484375 C93.04262636 186.820805 90.45920569 182.34958845 88 177.625 C87.50306641 176.65038818 87.00613281 175.67577637 86.49414062 174.67163086 C83.21218647 168.25952869 79.83061678 161.90210528 76.42260742 155.55639648 C72.1929583 147.60758935 68.38615043 139.45530137 64.53125 131.3203125 C61.77326193 125.50268142 58.92367861 119.73633144 56 114 C55.34 114 54.68 114 54 114 C53.8789795 113.26998339 53.757959 112.53996677 53.63327122 111.78782845 C53.0069023 109.03038577 52.13722054 106.91217422 50.86766052 104.39474487 C50.42033569 103.5003067 49.97301086 102.60586853 49.51213074 101.68432617 C49.02013687 100.7158374 48.52814301 99.74734863 48.02124023 98.74951172 C47.50415497 97.71972198 46.9870697 96.68993225 46.45431519 95.62893677 C45.33183139 93.39537867 44.20657724 91.16321116 43.07888603 88.93227768 C41.29629273 85.40534946 39.52120168 81.87473756 37.74806213 78.3430481 C33.98496779 70.85012185 30.21174385 63.36231477 26.4375 55.875 C22.06125986 47.19340263 17.68898508 38.50985491 13.32670784 29.82123184 C11.57434731 26.33601924 9.81482058 22.85448608 8.05503845 19.37301636 C6.98612777 17.24608798 5.91755162 15.11899144 4.84936523 12.99169922 C4.10833809 11.53289337 4.10833809 11.53289337 3.3523407 10.0446167 C2.90783569 9.15581818 2.46333069 8.26701965 2.00535583 7.35128784 C1.61581443 6.57886686 1.22627302 5.80644588 0.82492733 5.01061821 C0 3 0 3 0 0 Z " fill="#482168" transform="translate(565,436)"/>
<path d="M0 0 C0.66 0 1.32 0 2 0 C0.56577452 4.70831597 -1.38516016 9.00812189 -3.625 13.375 C-4.35433649 14.81371601 -5.08349875 16.25252035 -5.8125 17.69140625 C-6.18117188 18.41602051 -6.54984375 19.14063477 -6.9296875 19.88720703 C-7.90076536 21.80411118 -8.86016432 23.72607629 -9.8125 25.65234375 C-13.2235268 32.54723066 -16.71902669 39.39244077 -20.28369141 46.20922852 C-27.9326354 60.85107334 -35.35759857 75.60217327 -42.75 90.375 C-43.28116425 91.43483093 -43.81232849 92.49466187 -44.35958862 93.58660889 C-49.72372943 104.29418953 -55.03736179 115.01691412 -60.140625 125.8515625 C-63.57966414 133.14343438 -67.20762234 140.30179571 -71.00088501 147.4150238 C-77.10179699 158.88990527 -82.83014984 170.55613929 -88.625 182.1875 C-92.70875 190.375625 -96.7925 198.56375 -101 207 C-62.72 207.33 -24.44 207.66 15 208 C15.99 205.03 16.98 202.06 18 199 C19.23514571 196.30914685 20.49255736 193.68363043 21.84375 191.0546875 C22.20927475 190.33061707 22.5747995 189.60654663 22.95140076 188.86053467 C23.72843189 187.32248222 24.50810285 185.78576092 25.29025269 184.25030518 C27.3428366 180.2201138 29.37560668 176.17994219 31.41015625 172.140625 C31.81134171 171.34528351 32.21252716 170.54994202 32.62586975 169.73049927 C35.81318242 163.40108813 38.90753263 157.03131407 41.9375 150.625 C45.81263709 142.43943243 49.81688807 134.32851984 53.88989258 126.23974609 C57.04966366 119.94696748 60.11036557 113.61341294 63.125 107.25 C68.5132351 95.88423825 74.14565036 84.64447069 79.81103516 73.41503906 C80.50327141 72.03988551 81.19516891 70.66456138 81.88671875 69.2890625 C82.22419128 68.61883057 82.56166382 67.94859863 82.90936279 67.25805664 C84.73892206 63.60134241 86.51250354 59.92511319 88.22900391 56.21386719 C88.59202103 55.42974457 88.95503815 54.64562195 89.32905579 53.83773804 C90.02624089 52.32339452 90.7177139 50.80640488 91.40275574 49.28652954 C93.78204585 44.10897707 93.78204585 44.10897707 96 43 C95.3763853 47.20380517 93.93414465 50.46639692 92.0078125 54.2421875 C91.55536667 55.13654259 91.55536667 55.13654259 91.09378052 56.04896545 C90.44611977 57.32811042 89.79584078 58.60593248 89.14318848 59.88253784 C87.4131632 63.26797184 85.70373223 66.66378991 83.9921875 70.05859375 C83.64873291 70.73867996 83.30527832 71.41876617 82.95141602 72.11946106 C79.97507259 78.0229004 77.08838049 83.96646227 74.25 89.9375 C73.81469971 90.85265381 73.37939941 91.76780762 72.9309082 92.71069336 C72.06101665 94.54241095 71.19195085 96.37452094 70.32373047 98.20703125 C67.99473075 103.12104025 65.65515273 108.02998734 63.3125 112.9375 C62.62305298 114.38201538 62.62305298 114.38201538 61.91967773 115.85571289 C58.9614013 122.03674918 55.93434912 128.17829967 52.8425293 134.29345703 C50.5100219 138.92510774 48.30471639 143.60733774 46.125 148.3125 C43.05697526 154.91469204 39.74536989 161.34791207 36.28271484 167.75097656 C33.34909477 173.24751482 30.64751022 178.827645 28.015625 184.47265625 C27.30558374 185.9831882 26.59529564 187.49360414 25.88476562 189.00390625 C24.81711271 191.27427807 23.75713209 193.54679961 22.71948242 195.83105469 C21.74250513 197.98092402 20.74092359 200.11775721 19.734375 202.25390625 C19.30345551 203.2307412 19.30345551 203.2307412 18.86383057 204.22731018 C17.36858261 207.34223578 16.32527172 208.83535664 13.21118164 210.41162109 C9.68834194 211.05710453 6.46870834 211.20963321 2.88671875 211.16015625 C1.90418877 211.1523539 1.90418877 211.1523539 0.90180969 211.14439392 C-1.1698629 211.12672036 -3.24102008 211.09553373 -5.3125 211.0625 C-7.40177928 211.03488626 -9.49099136 211.01021814 -11.58036804 210.99131775 C-13.46291305 210.97348844 -15.3453601 210.9460849 -17.2277832 210.91821289 C-19.90874872 210.68009973 -19.90874872 210.68009973 -21 212 C-22.4346959 212.09894455 -23.87440397 212.12970735 -25.3125 212.125 C-26.48232422 212.12886719 -26.48232422 212.12886719 -27.67578125 212.1328125 C-29.91379173 212.00492619 -31.83545851 211.54459679 -34 211 C-34.66 211.165 -35.32 211.33 -36 211.5 C-38.37609195 212.09402299 -39.65609195 211.58597701 -42 211 C-44.18703385 211.37907282 -44.18703385 211.37907282 -46 212 C-46 211.67 -46 211.34 -46 211 C-46.91295837 211.00333092 -46.91295837 211.00333092 -47.84436035 211.00672913 C-54.20385143 211.02892701 -60.56333141 211.04396695 -66.92285156 211.05493164 C-69.29329882 211.05994692 -71.66374301 211.06676073 -74.03417969 211.07543945 C-77.44987753 211.08762813 -80.86553431 211.09325649 -84.28125 211.09765625 C-85.33364868 211.10281754 -86.38604736 211.10797882 -87.47033691 211.11329651 C-93.07912067 211.11371996 -98.45252479 210.83850436 -104 210 C-103.39779675 205.62181963 -101.7771894 202.46380313 -99.625 198.625 C-96.08757231 192.19213425 -92.87779923 185.64070455 -89.75 179 C-86.11317767 171.30851034 -82.34681 163.71143927 -78.375 156.1875 C-73.19795341 146.37858646 -68.1994198 136.48756366 -63.25 126.5625 C-62.8978241 125.8562851 -62.54564819 125.15007019 -62.18280029 124.42245483 C-60.80654233 121.66161622 -59.43082729 118.90051072 -58.05700684 116.13845825 C-56.3448049 112.69635362 -54.6283931 109.25647467 -52.90283203 105.82104492 C-48.96806304 97.9846518 -45.12489072 90.11448417 -41.375 82.1875 C-36.7398663 72.46396384 -31.87438868 62.88423771 -26.87597656 53.34326172 C-20.98962575 42.06779422 -15.3039903 30.69354213 -9.625 19.3125 C-9.14644562 18.35352814 -8.66789124 17.39455627 -8.17483521 16.40652466 C-5.44716474 10.93903832 -2.72239294 5.47011591 0 0 Z M-28 210 C-24 211 -24 211 -24 211 Z " fill="#482066" transform="translate(247,627)"/>
<path d="M0 0 C31.35 0 62.7 0 95 0 C106.56347754 21.97060732 106.56347754 21.97060732 111.61300659 32.10159302 C111.98447689 32.84625446 112.35594719 33.59091591 112.73867416 34.35814285 C113.12284626 35.12836147 113.50701836 35.89858009 113.90283203 36.69213867 C114.73843448 38.36362679 115.5742149 40.03502595 116.41015625 41.7063446 C118.64735778 46.18046455 120.88211577 50.65580073 123.1163888 55.13138366 C125.47341786 59.85177331 127.83277401 64.5709996 130.19186401 69.2903595 C134.65310631 78.21593494 139.11231307 87.14252567 143.5707587 96.06949836 C148.61978998 106.17873369 153.67108583 116.28683684 158.7225821 126.3948406 C167.36950109 143.69734414 176.01484649 161.00063309 184.65805054 178.30499268 C188.20334068 185.40279295 191.74935405 192.50023052 195.29734802 199.59667969 C195.6131273 200.2283114 195.92890659 200.85994312 196.25425494 201.51071519 C199.1190325 207.23996613 201.98878432 212.96672171 204.85935974 218.69306946 C207.40434483 223.77063038 209.94720626 228.8492544 212.4898901 233.92796803 C214.40357202 237.75012095 216.31800685 241.57189295 218.23413086 245.39282227 C233.87187822 276.57841924 233.87187822 276.57841924 238.96604919 287.57954407 C244.77435654 300.08995279 251.17241487 312.33574613 257.3777523 324.65198517 C262.07279365 333.97104979 266.75818681 343.29494614 271.43988895 352.62071705 C274.57817728 358.87136157 277.72030547 365.12002463 280.87084961 371.36450195 C283.93654317 377.44083931 286.99184087 383.52231026 290.04073906 389.6070919 C291.20191747 391.92019943 292.36661917 394.23154169 293.53486824 396.5410862 C295.1575819 399.75046356 296.76786856 402.96578134 298.37524414 406.18286133 C298.8618602 407.13811707 299.34847626 408.0933728 299.84983826 409.07757568 C300.28285248 409.95047745 300.7158667 410.82337921 301.16200256 411.72273254 C301.54337403 412.48086652 301.9247455 413.23900049 302.31767368 414.02010822 C303 416 303 416 302 419 C289.21866903 395.27732402 277.22056537 371.09021672 265.71899414 346.72363281 C263.27455116 341.57412082 260.73142422 336.49335053 258.06445312 331.45532227 C257.54818359 330.48006592 257.03191406 329.50480957 256.5 328.5 C256.11247716 327.77200951 255.72495432 327.04401901 255.32568836 326.2939682 C251.99918978 320.00344498 248.87280675 313.64072487 245.8347168 307.20678711 C240.41062936 295.79707397 234.80706815 284.48423752 229.14453125 273.19140625 C228.14790823 271.20003532 227.15146774 269.20857303 226.15519714 267.21702576 C223.56763531 262.04566265 220.97767659 256.87550388 218.387146 251.70562744 C215.7624918 246.46659425 213.14012622 241.22641581 210.51757812 235.98632812 C207.10588036 229.16992238 203.69351665 222.35385139 200.27961254 215.53855038 C198.58427603 212.15403392 196.88926645 208.76935379 195.19430923 205.38464737 C194.40207967 203.80282241 193.6096999 202.22107267 192.81716537 200.63940048 C191.71582776 198.44136825 190.61505188 196.24305556 189.5144043 194.04467773 C189.1954485 193.40846528 188.87649271 192.77225283 188.54787159 192.11676121 C185.9595498 186.94464691 183.46187509 181.73318621 181 176.5 C177.09517672 168.25239422 173.08196348 160.06867136 168.96777344 151.92382812 C167.97366029 149.94763954 166.98944359 147.96679096 166.0078125 145.984375 C162.46695487 138.84149163 158.83477698 131.76350056 155.05446815 124.74437428 C152.78183829 120.50781663 150.58862117 116.23658841 148.45068359 111.93041992 C147.74512922 110.51445951 147.0394542 109.0985592 146.3336792 107.68270874 C145.95753227 106.92749813 145.58138535 106.17228752 145.19384003 105.39419174 C143.04093211 101.07663307 140.87849075 96.76384884 138.71728516 92.45043945 C134.03354187 83.09930903 129.35187044 73.74714285 124.6713047 64.39442158 C121.85499811 58.7670604 119.03792937 53.14008325 116.21923828 47.51391602 C113.47207091 42.0304323 110.72684952 36.54597846 107.98298264 31.06084251 C106.94147813 28.97967831 105.89927064 26.89886575 104.85634232 24.81841469 C103.40448467 21.92194289 101.95512278 19.02423528 100.50634766 16.1262207 C99.86273285 14.844384 99.86273285 14.844384 99.20611572 13.53665161 C98.81104828 12.74514206 98.41598083 11.95363251 98.00894165 11.13813782 C97.66720728 10.45559087 97.32547291 9.77304392 96.97338295 9.06981373 C95.88540606 6.75632601 94.94947674 4.37369186 94 2 C62.98 2 31.96 2 0 2 C0 1.34 0 0.68 0 0 Z " fill="#451D67" transform="translate(465,187)"/>
<path d="M0 0 C0.66 0 1.32 0 2 0 C0.61282695 4.50564395 -1.17707113 8.57514925 -3.30859375 12.77734375 C-3.63077881 13.41614975 -3.95296387 14.05495575 -4.28491211 14.71311951 C-4.9743287 16.07958125 -5.66544627 17.44518593 -6.35812378 18.80999756 C-8.195958 22.43245719 -10.02007373 26.06180324 -11.84375 29.69140625 C-12.20665634 30.41328125 -12.56956268 31.13515625 -12.94346619 31.87890625 C-15.85129237 37.6752738 -18.66855114 43.51099248 -21.4375 49.375 C-26.33971435 59.73943892 -31.47276152 69.98243591 -36.61871338 80.22717285 C-41.55379876 90.05617954 -46.39965165 99.91831024 -51.10717773 109.85888672 C-54.8193047 117.67857362 -58.6913123 125.4130977 -62.58227539 133.14501953 C-66.31916173 140.58959303 -69.92758432 148.0881664 -73.48803711 155.6184082 C-76.90063709 162.82523967 -80.43786131 169.96299338 -84.03222656 177.08056641 C-85.69708926 180.38257209 -87.34766233 183.69171431 -89 187 C-89.67311209 188.34638666 -90.34628895 189.69274095 -91.01953125 191.0390625 C-91.35033691 191.70067383 -91.68114258 192.36228516 -92.02197266 193.04394531 C-116.33203125 241.6640625 -116.33203125 241.6640625 -117.35009766 243.69995117 C-117.98935573 244.97862948 -118.62835507 246.25743717 -119.26708984 247.53637695 C-120.7618694 250.52867663 -122.2616764 253.51815394 -123.76953125 256.50390625 C-124.38839795 257.7315808 -125.00687793 258.95945036 -125.625 260.1875 C-125.9355835 260.80391357 -126.24616699 261.42032715 -126.56616211 262.05541992 C-128.9488099 266.81784139 -131.2557668 271.61488556 -133.546875 276.421875 C-134.18271905 277.75238913 -134.81862445 279.08287394 -135.45458984 280.41333008 C-136.72743275 283.07662647 -137.99190161 285.74370445 -139.25244141 288.4128418 C-139.84247122 289.64907007 -140.4327905 290.88516024 -141.0234375 292.12109375 C-141.54856934 293.2289624 -142.07370117 294.33683105 -142.61474609 295.47827148 C-144 298 -144 298 -146 299 C-145.3811603 294.44150472 -143.53067494 290.72075078 -141.4375 286.6875 C-140.70174796 285.24222565 -139.96607286 283.79691214 -139.23046875 282.3515625 C-138.66851807 281.25569824 -138.66851807 281.25569824 -138.09521484 280.13769531 C-134.22907976 272.59157878 -130.41670689 265.01532344 -126.78833008 257.35180664 C-120.02505747 243.07439356 -113.00711278 228.93038975 -105.93359375 214.8046875 C-105.4328471 213.80462866 -104.93210045 212.80456982 -104.41617966 211.77420616 C-100.75944587 204.47305308 -97.09884913 197.17383943 -93.4375 189.875 C-89.76588068 182.55565782 -86.09570729 175.23559732 -82.42894173 167.91382217 C-80.98911077 165.04047794 -79.54681535 162.16838101 -78.10435486 159.2963562 C-72.40654633 147.93198335 -66.85494699 136.50499477 -61.39837646 125.02284241 C-58.29082125 118.49174979 -55.06725386 112.02145599 -51.8125 105.5625 C-50.69399332 103.334644 -49.57550389 101.10677934 -48.45703125 98.87890625 C-47.89781982 97.76620361 -47.3386084 96.65350098 -46.76245117 95.50708008 C-46.18084229 94.34974365 -45.5992334 93.19240723 -45 92 C-44.53456284 91.07421646 -44.53456284 91.07421646 -44.0597229 90.12973022 C-38.81306824 79.6878279 -33.66174283 69.20210968 -28.5625 58.6875 C-28.19182404 57.92408295 -27.82114807 57.16066589 -27.4392395 56.37411499 C-22.87971279 46.98310184 -18.35335056 37.57839874 -13.91186523 28.13085938 C-10.4037331 20.68899849 -6.7093149 13.34310077 -3 6 C-1.99909431 4.0004531 -0.99877432 2.00061237 0 0 Z " fill="#4F2172" transform="translate(414,289)"/>
<path d="M0 0 C1.50433594 0.01353516 1.50433594 0.01353516 3.0390625 0.02734375 C3.80992187 0.03894531 4.58078125 0.05054688 5.375 0.0625 C5.705 0.7225 6.035 1.3825 6.375 2.0625 C3.405 2.0625 0.435 2.0625 -2.625 2.0625 C2.72379634 11.00807846 8.08176033 19.94781987 13.5 28.8515625 C13.851763 29.42962143 14.203526 30.00768036 14.56594849 30.60325623 C15.28517536 31.78502697 16.00442396 32.96678449 16.72369385 34.14852905 C22.90153709 44.29907977 29.01462181 54.48400225 35.04125977 64.7253418 C40.19966728 73.48370819 45.48903711 82.14550752 51 90.6875 C53.82920994 95.10492551 56.37992291 99.61920246 58.8203125 104.26171875 C60.44620095 107.19076904 62.19155651 110.01435395 63.97851562 112.84692383 C65.45025567 115.18189602 66.90455074 117.52703656 68.35546875 119.875 C69.13361938 121.13352783 69.13361938 121.13352783 69.92749023 122.41748047 C70.46704346 123.29033691 71.00659668 124.16319336 71.5625 125.0625 C75.84415505 131.98666841 80.13905509 138.90181389 84.47949219 145.78930664 C87.04034324 149.87124525 89.53327335 153.98933464 92 158.12890625 C92.94564819 159.70792725 92.94564819 159.70792725 93.91040039 161.31884766 C95.16180747 163.41175411 96.40600198 165.50899297 97.64233398 167.61083984 C98.21282471 168.56297363 98.78331543 169.51510742 99.37109375 170.49609375 C99.87825928 171.35259521 100.3854248 172.20909668 100.90795898 173.09155273 C102.30120668 175.35578908 102.30120668 175.35578908 105.375 176.0625 C113.32084977 163.19981424 121.25178667 150.33162184 128.99609375 137.34619141 C132.63940315 131.25132089 136.37059676 125.21444752 140.125 119.1875 C145.06866982 111.24833246 149.82815661 103.23582876 154.375 95.0625 C155.375 98.0625 155.375 98.0625 154.37792969 100.32055664 C153.85618164 101.19574951 153.33443359 102.07094238 152.796875 102.97265625 C152.21873047 103.95306885 151.64058594 104.93348145 151.04492188 105.94360352 C150.41134766 106.99346436 149.77777344 108.0433252 149.125 109.125 C148.48111328 110.209021 147.83722656 111.29304199 147.17382812 112.40991211 C145.25304641 115.63493127 143.31739998 118.85046371 141.375 122.0625 C140.87291016 122.89394531 140.37082031 123.72539063 139.85351562 124.58203125 C137.65726828 128.21006895 135.4446089 131.82756157 133.21875 135.4375 C131.11866027 138.84417964 129.03929473 142.26278204 126.96875 145.6875 C119.95926359 157.27429776 112.81671128 168.74806142 105.375 180.0625 C101.7352371 178.61745834 100.37699743 176.95343786 98.4296875 173.59765625 C97.65044922 172.27411133 97.65044922 172.27411133 96.85546875 170.92382812 C96.32566406 170.00021484 95.79585938 169.07660156 95.25 168.125 C94.18524949 166.30317868 93.12015964 164.48155563 92.0546875 162.66015625 C91.58788574 161.85070557 91.12108398 161.04125488 90.64013672 160.20727539 C88.28370755 156.2124413 86.42156977 154.29876224 82.375 152.0625 C82.705 151.0725 83.035 150.0825 83.375 149.0625 C82.55955338 147.04441725 82.55955338 147.04441725 81.19921875 144.95703125 C80.70623291 144.1470166 80.21324707 143.33700195 79.70532227 142.50244141 C79.16319092 141.63538574 78.62105957 140.76833008 78.0625 139.875 C77.51070068 138.97442871 76.95890137 138.07385742 76.39038086 137.14599609 C72.71627806 131.16519388 68.9818949 125.22117058 65.23706055 119.28442383 C61.08173171 112.66600757 57.14208175 105.92295833 53.18505859 99.18481445 C50.05301922 93.86420404 46.86739208 88.58980336 43.5625 83.375 C39.17196726 76.43638214 34.98496348 69.38402909 30.8125 62.3125 C25.09932724 52.63125292 19.3353327 42.98316588 13.5 33.375 C13.14260742 32.78612 12.78521484 32.19723999 12.41699219 31.59051514 C7.71287394 23.84402452 2.97387696 16.12015766 -1.93505859 8.5012207 C-4.625 4.27647252 -4.625 4.27647252 -4.625 2.0625 C-5.615 1.7325 -6.605 1.4025 -7.625 1.0625 C-4.98041621 -0.25979189 -2.94738699 -0.03427194 0 0 Z M84.375 150.0625 C85.375 152.0625 85.375 152.0625 85.375 152.0625 Z " fill="#401A5F" transform="translate(407.625,581.9375)"/>
<path d="M0 0 C2.57555794 2.30094947 3.90596863 4.53112186 5.34765625 7.65625 C5.78295654 8.58687256 6.21825684 9.51749512 6.66674805 10.47631836 C7.12734619 11.4741333 7.58794434 12.47194824 8.0625 13.5 C11.94852027 21.77941988 15.96621447 29.94914931 20.29907227 38.00390625 C22.82670598 42.71612586 25.25282096 47.47428702 27.63793945 52.26000977 C28.35560104 53.69768521 29.07327832 55.13535281 29.79096985 56.57301331 C30.15763575 57.30794069 30.52430164 58.04286808 30.90207863 58.80006599 C32.62800462 62.25834942 34.35706134 65.71506577 36.0859375 69.171875 C36.78728881 70.57453593 37.48862316 71.97720535 38.18994141 73.37988281 C38.54582336 74.09164673 38.90170532 74.80341064 39.26837158 75.53674316 C59.84558105 116.69116211 80.42279053 157.84558105 101 199 C101.59103516 200.09957031 102.18207031 201.19914063 102.79101562 202.33203125 C103.18998047 203.21246094 103.58894531 204.09289062 104 205 C103.67 205.66 103.34 206.32 103 207 C102.51789063 206.13375 102.03578125 205.2675 101.5390625 204.375 C100.90742187 203.26125 100.27578125 202.1475 99.625 201 C98.99851562 199.88625 98.37203125 198.7725 97.7265625 197.625 C97.15679688 196.75875 96.58703125 195.8925 96 195 C95.34 195 94.68 195 94 195 C93.938125 194.05898438 93.87625 193.11796875 93.8125 192.1484375 C93.04262636 186.820805 90.45920569 182.34958845 88 177.625 C87.50306641 176.65038818 87.00613281 175.67577637 86.49414062 174.67163086 C83.21218647 168.25952869 79.83061678 161.90210528 76.42260742 155.55639648 C72.1929583 147.60758935 68.38615043 139.45530137 64.53125 131.3203125 C61.77326193 125.50268142 58.92367861 119.73633144 56 114 C55.34 114 54.68 114 54 114 C53.8789795 113.26998339 53.757959 112.53996677 53.63327122 111.78782845 C53.0069023 109.03038577 52.13722054 106.91217422 50.86766052 104.39474487 C50.42033569 103.5003067 49.97301086 102.60586853 49.51213074 101.68432617 C49.02013687 100.7158374 48.52814301 99.74734863 48.02124023 98.74951172 C47.50415497 97.71972198 46.9870697 96.68993225 46.45431519 95.62893677 C45.33183139 93.39537867 44.20657724 91.16321116 43.07888603 88.93227768 C41.29629273 85.40534946 39.52120168 81.87473756 37.74806213 78.3430481 C33.98496779 70.85012185 30.21174385 63.36231477 26.4375 55.875 C22.06125986 47.19340263 17.68898508 38.50985491 13.32670784 29.82123184 C11.57434731 26.33601924 9.81482058 22.85448608 8.05503845 19.37301636 C6.98612777 17.24608798 5.91755162 15.11899144 4.84936523 12.99169922 C4.10833809 11.53289337 4.10833809 11.53289337 3.3523407 10.0446167 C2.90783569 9.15581818 2.46333069 8.26701965 2.00535583 7.35128784 C1.61581443 6.57886686 1.22627302 5.80644588 0.82492733 5.01061821 C0 3 0 3 0 0 Z " fill="#441C65" transform="translate(565,436)"/>
<path d="M0 0 C0.495 0.99 0.495 0.99 1 2 C1.99 2.495 1.99 2.495 3 3 C-1.78825292 11.19301472 -6.57944755 19.38550673 -11.5 27.5 C-12.44359375 29.06234375 -12.44359375 29.06234375 -13.40625 30.65625 C-15 33 -15 33 -17 34 C-15.67473823 30.49344801 -14.12761318 27.30119891 -12.25 24.05859375 C-11.7240625 23.14529297 -11.198125 22.23199219 -10.65625 21.29101562 C-10.1096875 20.34935547 -9.563125 19.40769531 -9 18.4375 C-7.91571917 16.5617453 -6.83235014 14.68546317 -5.75 12.80859375 C-5.27046875 11.98157959 -4.7909375 11.15456543 -4.296875 10.30249023 C-3.12889852 8.22884826 -2.05562569 6.13216267 -1 4 C-8.36296901 3.59237757 -15.72301592 3.31341597 -23.09472656 3.12109375 C-25.59811041 3.04090269 -28.1007509 2.93190273 -30.6015625 2.79296875 C-43.85838829 1.49278395 -43.85838829 1.49278395 -56.03765869 5.44482422 C-59.39375018 9.1340622 -61.32832807 13.37814192 -63.152771 17.97753906 C-64.33714055 20.80480435 -65.96511979 23.22797718 -67.6953125 25.75 C-68.25855225 26.61423584 -68.82179199 27.47847168 -69.40209961 28.36889648 C-69.97065674 29.23716064 -70.53921387 30.1054248 -71.125 31 C-71.74318604 31.94625244 -72.36137207 32.89250488 -72.99829102 33.86743164 C-80.25962567 44.95979957 -87.62404903 55.98362728 -95 67 C-95.33 66.34 -95.66 65.68 -96 65 C-94.74536934 62.68206986 -93.43370526 60.51803416 -92 58.3125 C-91.55503174 57.61479492 -91.11006348 56.91708984 -90.65161133 56.19824219 C-89.11140335 53.79200887 -87.55712028 51.39532167 -86 49 C-85.42556152 48.11425293 -84.85112305 47.22850586 -84.25927734 46.31591797 C-80.49073974 40.51011321 -76.70475293 34.71584219 -72.91357422 28.92480469 C-69.85235919 24.2458871 -66.79991178 19.56129088 -63.75 14.875 C-62.94502075 13.64088379 -62.94502075 13.64088379 -62.1237793 12.38183594 C-61.62402588 11.61387695 -61.12427246 10.84591797 -60.609375 10.0546875 C-60.17592773 9.38937012 -59.74248047 8.72405273 -59.29589844 8.03857422 C-57.87861817 5.97129137 -57.87861817 5.97129137 -57.01196289 3.27929688 C-55 1 -55 1 -52.88113403 0.56204224 C-49.97452144 0.4008623 -47.10969413 0.41296917 -44.19921875 0.4765625 C-42.59552177 0.4836171 -42.59552177 0.4836171 -40.95942688 0.49081421 C-37.53480181 0.51219656 -34.11171216 0.56879844 -30.6875 0.625 C-28.39129068 0.64150436 -26.09506479 0.65585313 -23.79882812 0.66796875 C-5.64920167 0.8139135 -5.64920167 0.8139135 0 2 C0 1.34 0 0.68 0 0 Z " fill="#52217B" transform="translate(617,581)"/>
<path d="M0 0 C8.37898379 7.25497377 12.90297762 21.88069401 17.57348633 31.73754883 C22.7317404 42.60228148 28.1308872 53.34373758 33.53564453 64.08740234 C35.57224854 68.13820024 37.59910178 72.19384053 39.625 76.25 C40.22129145 77.44273969 40.81764066 78.63545051 41.4140625 79.828125 C41.93742188 80.87484375 42.46078125 81.9215625 43 83 C43.87785156 84.63195312 43.87785156 84.63195312 44.7734375 86.296875 C45.17820312 87.18890625 45.58296875 88.0809375 46 89 C45.67 89.66 45.34 90.32 45 91 C44.51789062 90.13375 44.03578125 89.2675 43.5390625 88.375 C42.90742187 87.26125 42.27578125 86.1475 41.625 85 C40.99851562 83.88625 40.37203125 82.7725 39.7265625 81.625 C39.15679688 80.75875 38.58703125 79.8925 38 79 C37.34 79 36.68 79 36 79 C35.9071875 77.58847656 35.9071875 77.58847656 35.8125 76.1484375 C35.04262636 70.820805 32.45920569 66.34958845 30 61.625 C29.25459961 60.16308228 29.25459961 60.16308228 28.49414062 58.67163086 C25.21368487 52.26245617 21.83426138 45.90757221 18.42700195 39.56518555 C13.71346998 30.70879002 9.49518154 21.60640748 5.21630859 12.53466797 C4.07205046 10.15014609 2.88242446 7.79481094 1.67578125 5.44140625 C0 2 0 2 0 0 Z " fill="#3C195A" transform="translate(623,552)"/>
<path d="M0 0 C6.19302201 -0.04944073 12.38592909 -0.08573905 18.57910156 -0.10986328 C20.68589275 -0.11992034 22.79266999 -0.13356768 24.89941406 -0.15087891 C27.92776941 -0.17514 30.95594019 -0.18648608 33.984375 -0.1953125 C34.92617615 -0.20563507 35.86797729 -0.21595764 36.83831787 -0.22659302 C37.71892883 -0.22674408 38.59953979 -0.22689514 39.50683594 -0.22705078 C40.27960876 -0.231492 41.05238159 -0.23593323 41.84857178 -0.24050903 C44.32760887 0.03662353 45.91215787 0.64061165 48 2 C48.75 4.625 48.75 4.625 49 7 C47.5 5.625 47.5 5.625 46 4 C46 3.34 46 2.68 46 2 C45.34 2.33 44.68 2.66 44 3 C42.36664808 3.11872573 40.72872646 3.17709092 39.09130859 3.20532227 C38.07040131 3.22526749 37.04949402 3.24521271 35.99765015 3.26576233 C34.89240997 3.28247482 33.7871698 3.29918732 32.6484375 3.31640625 C31.5192691 3.33718735 30.39010071 3.35796844 29.22671509 3.37937927 C25.60954028 3.44491335 21.99229119 3.50377774 18.375 3.5625 C15.92707556 3.60568154 13.47915872 3.64929571 11.03125 3.69335938 C5.0209125 3.80059867 -0.98949935 3.90235787 -7 4 C-7 3.34 -7 2.68 -7 2 C-4.69 2 -2.38 2 0 2 C0 1.34 0 0.68 0 0 Z " fill="#5A2786" transform="translate(414,582)"/>
<path d="M0 0 C1.50433594 0.01353516 1.50433594 0.01353516 3.0390625 0.02734375 C3.80992187 0.03894531 4.58078125 0.05054688 5.375 0.0625 C5.705 0.7225 6.035 1.3825 6.375 2.0625 C3.405 2.0625 0.435 2.0625 -2.625 2.0625 C5.34879326 15.39824672 13.38561245 28.69477472 21.46208191 41.96850586 C22.46918 43.6261921 23.47242894 45.28621488 24.47558594 46.94628906 C25.71549357 48.98050257 26.97326471 51.00396498 28.25097656 53.01464844 C28.81010742 53.90442383 29.36923828 54.79419922 29.9453125 55.7109375 C30.44047363 56.48356934 30.93563477 57.25620117 31.44580078 58.05224609 C32.375 60.0625 32.375 60.0625 31.375 63.0625 C28.81009386 58.85562852 26.24788603 54.64712343 23.6875 50.4375 C23.30395355 49.80701752 22.9204071 49.17653503 22.52523804 48.52694702 C16.82417957 39.15049398 11.18520778 29.74083738 5.66333008 20.25732422 C2.77887559 15.32981522 -0.25087455 10.56641641 -3.5168457 5.8815918 C-4.625 4.0625 -4.625 4.0625 -4.625 2.0625 C-5.615 1.7325 -6.605 1.4025 -7.625 1.0625 C-4.98041621 -0.25979189 -2.94738699 -0.03427194 0 0 Z " fill="#421A61" transform="translate(407.625,581.9375)"/>
<path d="M0 0 C3.59340533 1.19780178 3.86352773 1.97156541 5.70703125 5.15625 C6.21169922 6.01476562 6.71636719 6.87328125 7.23632812 7.7578125 C7.75646484 8.66273438 8.27660156 9.56765625 8.8125 10.5 C14.42674065 20.56948575 14.42674065 20.56948575 21 30 C21.66 30 22.32 30 23 30 C23.66 29.01 24.32 28.02 25 27 C25.66 27.33 26.32 27.66 27 28 C25.02 30.97 25.02 30.97 23 34 C19.3602371 32.55495834 18.00199743 30.89093786 16.0546875 27.53515625 C15.53519531 26.65279297 15.01570313 25.77042969 14.48046875 24.86132812 C13.95066406 23.93771484 13.42085938 23.01410156 12.875 22.0625 C11.81024949 20.24067868 10.74515964 18.41905563 9.6796875 16.59765625 C9.21288574 15.78820557 8.74608398 14.97875488 8.26513672 14.14477539 C5.90870755 10.1499413 4.04656977 8.23626224 0 6 C0.33 5.01 0.66 4.02 1 3 C0.67 2.01 0.34 1.02 0 0 Z M2 4 C3 6 3 6 3 6 Z " fill="#411961" transform="translate(490,728)"/>
<path d="M0 0 C0.66 0 1.32 0 2 0 C3.41204572 1.86235643 4.67866762 3.72262799 5.9375 5.6875 C6.81751903 7.03918577 7.69774765 8.39073509 8.578125 9.7421875 C9.09568359 10.54108398 9.61324219 11.33998047 10.14648438 12.16308594 C11.95360665 14.92899226 13.78158549 17.67977851 15.61656189 20.42723083 C17.37051203 23.05494729 19.11741635 25.68730967 20.86355591 28.32022095 C21.7479958 29.65113143 22.6349517 30.98037327 23.52438354 32.30795288 C24.78824019 34.19643954 26.04167807 36.09145321 27.29296875 37.98828125 C27.68204407 38.56478424 28.07111938 39.14128723 28.47198486 39.73526001 C29.37697302 41.11800429 30.19782552 42.55518118 31 44 C30.67 44.66 30.34 45.32 30 46 C21.40295443 33.68587434 13.06355214 21.21420261 4.875 8.625 C4.38918457 7.88088867 3.90336914 7.13677734 3.40283203 6.37011719 C0 1.11735728 0 1.11735728 0 0 Z " fill="#451967" transform="translate(480,615)"/>
<path d="M0 0 C1.36596895 4.09790686 -0.2573296 6.33490175 -2.0625 10 C-2.38250977 10.66773438 -2.70251953 11.33546875 -3.03222656 12.0234375 C-5.43415148 16.98408956 -8.0321325 21.82269843 -10.72265625 26.6328125 C-11.83112268 28.6870347 -12.7952483 30.72065133 -13.6875 32.875 C-14.90753036 35.77983419 -16.31127418 38.34628799 -18 41 C-19 38 -19 38 -17.734375 34.98046875 C-17.08264853 33.71110191 -16.42031737 32.44714844 -15.75 31.1875 C-15.01501232 29.76463923 -14.28067602 28.34144187 -13.546875 26.91796875 C-13.14275391 26.14114746 -12.73863281 25.36432617 -12.32226562 24.56396484 C-9.83163736 19.73446374 -7.42297572 14.8636863 -5 10 C-4.04197996 8.08317672 -3.08367207 6.16649726 -2.125 4.25 C-1.71507812 3.43015625 -1.30515625 2.6103125 -0.8828125 1.765625 C-0.59148437 1.18296875 -0.30015625 0.6003125 0 0 Z " fill="#8330C6" transform="translate(444,232)"/>
<path d="M0 0 C0.33 0.66 0.66 1.32 1 2 C1.66 2.33 2.32 2.66 3 3 C-1.78825292 11.19301472 -6.57944755 19.38550673 -11.5 27.5 C-12.1290625 28.5415625 -12.758125 29.583125 -13.40625 30.65625 C-15 33 -15 33 -17 34 C-15.67945723 30.51168589 -14.14554233 27.32479682 -12.28515625 24.09375 C-11.76373047 23.18496094 -11.24230469 22.27617188 -10.70507812 21.33984375 C-10.16302734 20.40269531 -9.62097656 19.46554687 -9.0625 18.5 C-8.25522461 17.09427734 -8.25522461 17.09427734 -7.43164062 15.66015625 C-4.99112363 11.41708725 -2.52688449 7.19234168 0 3 C-1.98 3 -3.96 3 -6 3 C-6 2.67 -6 2.34 -6 2 C-4.02 2 -2.04 2 0 2 C0 1.34 0 0.68 0 0 Z " fill="#481F6A" transform="translate(617,581)"/>
<path d="M0 0 C1.50433594 0.01353516 1.50433594 0.01353516 3.0390625 0.02734375 C3.80992187 0.03894531 4.58078125 0.05054688 5.375 0.0625 C5.705 0.7225 6.035 1.3825 6.375 2.0625 C3.405 2.0625 0.435 2.0625 -2.625 2.0625 C-2.25246094 2.60519531 -1.87992187 3.14789062 -1.49609375 3.70703125 C-1.02300781 4.42246094 -0.54992187 5.13789062 -0.0625 5.875 C0.65099609 6.93654297 0.65099609 6.93654297 1.37890625 8.01953125 C2.375 10.0625 2.375 10.0625 1.375 13.0625 C0.3694239 11.60800599 -0.62930435 10.14877557 -1.625 8.6875 C-2.181875 7.87539063 -2.73875 7.06328125 -3.3125 6.2265625 C-4.625 4.0625 -4.625 4.0625 -4.625 2.0625 C-5.615 1.7325 -6.605 1.4025 -7.625 1.0625 C-4.98041621 -0.25979189 -2.94738699 -0.03427194 0 0 Z " fill="#502671" transform="translate(407.625,581.9375)"/>
<path d="M0 0 C1.32 0.33 2.64 0.66 4 1 C4.268125 2.0725 4.53625 3.145 4.8125 4.25 C5.86227827 7.56508928 6.74612328 9.43877646 9 12 C8.67 12.66 8.34 13.32 8 14 C0 4.57142857 0 4.57142857 0 0 Z " fill="#782DB5" transform="translate(460,586)"/>
<path d="M0 0 C1 3 1 3 0.29296875 4.8671875 C-0.07183594 5.52976562 -0.43664062 6.19234375 -0.8125 6.875 C-2.40707479 9.86551743 -3.80777286 12.82072763 -5 16 C-5.66 16 -6.32 16 -7 16 C-5.35433477 10.31497465 -2.70967216 5.23318364 0 0 Z " fill="#8933CD" transform="translate(392,338)"/>
<path d="M0 0 C0.33 0.66 0.66 1.32 1 2 C1.66 2.33 2.32 2.66 3 3 C1.02 5.97 -0.96 8.94 -3 12 C-3.33 11.34 -3.66 10.68 -4 10 C-3.22265625 8.2734375 -3.22265625 8.2734375 -2.0625 6.375 C-1.381875 5.26125 -0.70125 4.1475 0 3 C-1.98 3 -3.96 3 -6 3 C-6 2.67 -6 2.34 -6 2 C-4.02 2 -2.04 2 0 2 C0 1.34 0 0.68 0 0 Z " fill="#3D1B5B" transform="translate(617,581)"/>
<path d="M0 0 C4.39158329 1.4638611 4.87947433 3.97831338 7 8 C6.01 8.495 6.01 8.495 5 9 C2.375 7.5625 2.375 7.5625 0 6 C0.33 5.01 0.66 4.02 1 3 C0.67 2.01 0.34 1.02 0 0 Z M2 4 C3 6 3 6 3 6 Z " fill="#572779" transform="translate(490,728)"/>
<path d="M0 0 C0.33 0.66 0.66 1.32 1 2 C0.328125 3.91015625 0.328125 3.91015625 -0.75 6.0625 C-1.09546875 6.77535156 -1.4409375 7.48820313 -1.796875 8.22265625 C-3 10 -3 10 -6 11 C-4.54955729 6.89041233 -2.48889248 3.56741255 0 0 Z " fill="#7E2DC0" transform="translate(561,587)"/>
<path d="M0 0 C0.66 0.33 1.32 0.66 2 1 C0.02 3.97 0.02 3.97 -2 7 C-3.32 6.34 -4.64 5.68 -6 5 C-5.67 4.01 -5.34 3.02 -5 2 C-4.01 2.33 -3.02 2.66 -2 3 C-1.34 2.01 -0.68 1.02 0 0 Z " fill="#472265" transform="translate(515,755)"/>
<path d="M0 0 C6 7.71428571 6 7.71428571 6 11 C3 10 3 10 1.83203125 7.93359375 C1.49558594 7.10988281 1.15914062 6.28617187 0.8125 5.4375 C0.46832031 4.61121094 0.12414062 3.78492188 -0.23046875 2.93359375 C-0.48441406 2.29550781 -0.73835937 1.65742188 -1 1 C-0.67 0.67 -0.34 0.34 0 0 Z " fill="#512377" transform="translate(651,370)"/>
<path d="M0 0 C0.66 0.33 1.32 0.66 2 1 C0.35 3.64 -1.3 6.28 -3 9 C-3.33 8.01 -3.66 7.02 -4 6 C-2.0625 2.8125 -2.0625 2.8125 0 0 Z " fill="#4B206C" transform="translate(545,706)"/>
<path d="M0 0 C0.66 1.32 1.32 2.64 2 4 C1.34 3.67 0.68 3.34 0 3 C0 2.01 0 1.02 0 0 Z " fill="#823FB0" transform="translate(682,675)"/>
<path d="M0 0 C4 1 4 1 4 1 Z " fill="#813FA8" transform="translate(809,838)"/>
<path d="M0 0 C4 1 4 1 4 1 Z " fill="#813FA7" transform="translate(193,838)"/>
<path d="M0 0 C4 1 4 1 4 1 Z " fill="#7B439C" transform="translate(144,838)"/>
<path d="M0 0 C0.99 0.495 0.99 0.495 2 1 C1.67 1.66 1.34 2.32 1 3 C0.67 2.01 0.34 1.02 0 0 Z " fill="#803DAD" transform="translate(651,613)"/>
<path d="M0 0 C0.99 0.495 0.99 0.495 2 1 C1.01 1.495 1.01 1.495 0 2 C0 1.34 0 0.68 0 0 Z " fill="#754293" transform="translate(880,838)"/>
<path d="M0 0 C3 1 3 1 3 1 Z " fill="#7F40A5" transform="translate(852,838)"/>
<path d="M0 0 C3 1 3 1 3 1 Z " fill="#7E3FA5" transform="translate(848,838)"/>
<path d="M0 0 C2 1 2 1 2 1 Z " fill="#7F40A4" transform="translate(859,838)"/>
<path d="M0 0 C2 1 2 1 2 1 Z " fill="#803EA6" transform="translate(789,838)"/>
<path d="M0 0 C2 1 2 1 2 1 Z " fill="#7F3FA6" transform="translate(227,838)"/>
<path d="" fill="#783C9E" transform="translate(0,0)"/>
<path d="" fill="#793CA1" transform="translate(0,0)"/>
<path d="" fill="#7D3EA8" transform="translate(0,0)"/>
<path d="" fill="#7F3FA9" transform="translate(0,0)"/>
<path d="" fill="#783FA2" transform="translate(0,0)"/>
<path d="" fill="#7E3EA9" transform="translate(0,0)"/>
<path d="" fill="#7D40A9" transform="translate(0,0)"/>
<path d="M0 0 C2 1 2 1 2 1 Z " fill="#813FB0" transform="translate(688,689)"/>
<path d="" fill="#8141AE" transform="translate(0,0)"/>
<path d="" fill="#813FB0" transform="translate(0,0)"/>
<path d="" fill="#7F3CAD" transform="translate(0,0)"/>
<path d="" fill="#813FB2" transform="translate(0,0)"/>
<path d="" fill="#7C3DAE" transform="translate(0,0)"/>
<path d="" fill="#833FB0" transform="translate(0,0)"/>
<path d="" fill="#8446B3" transform="translate(0,0)"/>
<path d="" fill="#7F3EB0" transform="translate(0,0)"/>
<path d="" fill="#574D5B" transform="translate(0,0)"/>
<path d="" fill="#764694" transform="translate(0,0)"/>
<path d="" fill="#7A3C9E" transform="translate(0,0)"/>
<path d="" fill="#784696" transform="translate(0,0)"/>
<path d="" fill="#774098" transform="translate(0,0)"/>
<path d="" fill="#7C42A1" transform="translate(0,0)"/>
<path d="" fill="#7D41A2" transform="translate(0,0)"/>
<path d="" fill="#7E41A2" transform="translate(0,0)"/>
<path d="" fill="#7F42A5" transform="translate(0,0)"/>
<path d="" fill="#8040A5" transform="translate(0,0)"/>
<path d="" fill="#8041A6" transform="translate(0,0)"/>
<path d="" fill="#8140A7" transform="translate(0,0)"/>
<path d="" fill="#7F41A3" transform="translate(0,0)"/>
<path d="" fill="#7E41A6" transform="translate(0,0)"/>
<path d="" fill="#7F42A6" transform="translate(0,0)"/>
<path d="" fill="#7C3FA6" transform="translate(0,0)"/>
<path d="" fill="#7E3FA7" transform="translate(0,0)"/>
<path d="" fill="#7F3CA6" transform="translate(0,0)"/>
<path d="" fill="#803EA5" transform="translate(0,0)"/>
<path d="" fill="#7E40A4" transform="translate(0,0)"/>
<path d="" fill="#7E3EA4" transform="translate(0,0)"/>
<path d="" fill="#7D3EA1" transform="translate(0,0)"/>
<path d="" fill="#7D41A0" transform="translate(0,0)"/>
<path d="" fill="#783B9C" transform="translate(0,0)"/>
<path d="" fill="#783B9E" transform="translate(0,0)"/>
<path d="" fill="#7D3DA2" transform="translate(0,0)"/>
<path d="" fill="#7C3EA2" transform="translate(0,0)"/>
<path d="" fill="#7D3FA4" transform="translate(0,0)"/>
<path d="" fill="#813FA4" transform="translate(0,0)"/>
<path d="" fill="#7E40A3" transform="translate(0,0)"/>
<path d="" fill="#7C3DA5" transform="translate(0,0)"/>
<path d="" fill="#803DA5" transform="translate(0,0)"/>
<path d="" fill="#7E3EA4" transform="translate(0,0)"/>
<path d="" fill="#8041A7" transform="translate(0,0)"/>
<path d="" fill="#8041A7" transform="translate(0,0)"/>
<path d="" fill="#8344A7" transform="translate(0,0)"/>
<path d="" fill="#7F42A6" transform="translate(0,0)"/>
<path d="" fill="#8142A7" transform="translate(0,0)"/>
<path d="" fill="#7D459F" transform="translate(0,0)"/>
<path d="" fill="#744597" transform="translate(0,0)"/>
<path d="" fill="#794497" transform="translate(0,0)"/>
<path d="" fill="#7A459A" transform="translate(0,0)"/>
<path d="" fill="#7A419F" transform="translate(0,0)"/>
<path d="" fill="#7A449F" transform="translate(0,0)"/>
<path d="" fill="#793CA4" transform="translate(0,0)"/>
<path d="" fill="#7A3CA3" transform="translate(0,0)"/>
<path d="" fill="#7B3DA4" transform="translate(0,0)"/>
<path d="" fill="#7E43A5" transform="translate(0,0)"/>
<path d="" fill="#7B3DA5" transform="translate(0,0)"/>
<path d="" fill="#7D3FA7" transform="translate(0,0)"/>
<path d="" fill="#7E41A9" transform="translate(0,0)"/>
<path d="" fill="#7539A3" transform="translate(0,0)"/>
<path d="" fill="#7E3FA9" transform="translate(0,0)"/>
<path d="" fill="#7D40A8" transform="translate(0,0)"/>
<path d="" fill="#7D3DA6" transform="translate(0,0)"/>
<path d="" fill="#7E41A9" transform="translate(0,0)"/>
<path d="" fill="#8345AC" transform="translate(0,0)"/>
<path d="" fill="#8244AB" transform="translate(0,0)"/>
<path d="" fill="#8040B1" transform="translate(0,0)"/>
<path d="" fill="#783E9E" transform="translate(0,0)"/>
<path d="" fill="#8146AB" transform="translate(0,0)"/>
<path d="" fill="#783EA0" transform="translate(0,0)"/>
<path d="" fill="#7B40A1" transform="translate(0,0)"/>
<path d="" fill="#7D43A5" transform="translate(0,0)"/>
<path d="" fill="#793EA4" transform="translate(0,0)"/>
<path d="" fill="#8246AD" transform="translate(0,0)"/>
<path d="" fill="#7C40A8" transform="translate(0,0)"/>
<path d="" fill="#7E41A9" transform="translate(0,0)"/>
<path d="" fill="#7E3EA8" transform="translate(0,0)"/>
<path d="" fill="#7C3FA9" transform="translate(0,0)"/>
<path d="" fill="#8243B0" transform="translate(0,0)"/>
<path d="" fill="#7F43A7" transform="translate(0,0)"/>
<path d="" fill="#813FAD" transform="translate(0,0)"/>
<path d="" fill="#7E44A8" transform="translate(0,0)"/>
<path d="" fill="#8347AE" transform="translate(0,0)"/>
<path d="" fill="#7E40A7" transform="translate(0,0)"/>
<path d="" fill="#803FA8" transform="translate(0,0)"/>
<path d="" fill="#8342B0" transform="translate(0,0)"/>
<path d="" fill="#7C3FA7" transform="translate(0,0)"/>
<path d="" fill="#8040AC" transform="translate(0,0)"/>
<path d="" fill="#7C3EA9" transform="translate(0,0)"/>
<path d="" fill="#7E42A9" transform="translate(0,0)"/>
<path d="" fill="#843FB3" transform="translate(0,0)"/>
<path d="" fill="#7B3BAB" transform="translate(0,0)"/>
<path d="" fill="#803EAB" transform="translate(0,0)"/>
<path d="" fill="#8442B6" transform="translate(0,0)"/>
<path d="" fill="#8141B0" transform="translate(0,0)"/>
<path d="" fill="#8644B5" transform="translate(0,0)"/>
<path d="" fill="#8143AD" transform="translate(0,0)"/>
<path d="" fill="#8143B0" transform="translate(0,0)"/>
<path d="" fill="#833EAF" transform="translate(0,0)"/>
<path d="" fill="#8647AF" transform="translate(0,0)"/>
<path d="" fill="#823FAF" transform="translate(0,0)"/>
<path d="" fill="#7F40AC" transform="translate(0,0)"/>
<path d="" fill="#7E3DAB" transform="translate(0,0)"/>
<path d="" fill="#803FAE" transform="translate(0,0)"/>
<path d="" fill="#8642B3" transform="translate(0,0)"/>
<path d="" fill="#7F41AD" transform="translate(0,0)"/>
<path d="" fill="#8044AA" transform="translate(0,0)"/>
<path d="" fill="#8546AE" transform="translate(0,0)"/>
<path d="" fill="#823DB3" transform="translate(0,0)"/>
<path d="" fill="#8340B0" transform="translate(0,0)"/>
<path d="" fill="#8649B0" transform="translate(0,0)"/>
<path d="" fill="#8041AD" transform="translate(0,0)"/>
<path d="" fill="#8342AF" transform="translate(0,0)"/>
<path d="" fill="#8544B4" transform="translate(0,0)"/>
<path d="" fill="#7D40A8" transform="translate(0,0)"/>
<path d="" fill="#8342B6" transform="translate(0,0)"/>
<path d="" fill="#843FB2" transform="translate(0,0)"/>
<path d="" fill="#823BB3" transform="translate(0,0)"/>
<path d="" fill="#8040AA" transform="translate(0,0)"/>
<path d="" fill="#7E3FAE" transform="translate(0,0)"/>
<path d="" fill="#843FB0" transform="translate(0,0)"/>
<path d="" fill="#8141AE" transform="translate(0,0)"/>
<path d="" fill="#833FB4" transform="translate(0,0)"/>
<path d="" fill="#7D3CAE" transform="translate(0,0)"/>
<path d="" fill="#8542B3" transform="translate(0,0)"/>
<path d="" fill="#843FB2" transform="translate(0,0)"/>
<path d="" fill="#813DB1" transform="translate(0,0)"/>
<path d="" fill="#7E3EAE" transform="translate(0,0)"/>
<path d="" fill="#8345B0" transform="translate(0,0)"/>
<path d="" fill="#8342B0" transform="translate(0,0)"/>
<path d="" fill="#8240AF" transform="translate(0,0)"/>
<path d="" fill="#8140B3" transform="translate(0,0)"/>
<path d="" fill="#813EAE" transform="translate(0,0)"/>
<path d="" fill="#8647B2" transform="translate(0,0)"/>
<path d="" fill="#7F3EAA" transform="translate(0,0)"/>
<path d="" fill="#8340B0" transform="translate(0,0)"/>
<path d="" fill="#823EB0" transform="translate(0,0)"/>
<path d="" fill="#8849B1" transform="translate(0,0)"/>
<path d="" fill="#8443B4" transform="translate(0,0)"/>
<path d="" fill="#8240B2" transform="translate(0,0)"/>
<path d="" fill="#8242B0" transform="translate(0,0)"/>
<path d="" fill="#8243B1" transform="translate(0,0)"/>
<path d="" fill="#7D3EAA" transform="translate(0,0)"/>
<path d="" fill="#8043B2" transform="translate(0,0)"/>
<path d="" fill="#823DAF" transform="translate(0,0)"/>
<path d="" fill="#823DAF" transform="translate(0,0)"/>
<path d="" fill="#7C3EAA" transform="translate(0,0)"/>
<path d="" fill="#813EB0" transform="translate(0,0)"/>
<path d="" fill="#7D3DAC" transform="translate(0,0)"/>
<path d="" fill="#8445AE" transform="translate(0,0)"/>
<path d="" fill="#7C3DAA" transform="translate(0,0)"/>
<path d="" fill="#813FAD" transform="translate(0,0)"/>
<path d="" fill="#8140AF" transform="translate(0,0)"/>
<path d="" fill="#8241AE" transform="translate(0,0)"/>
<path d="" fill="#823CB0" transform="translate(0,0)"/>
<path d="" fill="#8342B0" transform="translate(0,0)"/>
<path d="" fill="#8740B7" transform="translate(0,0)"/>
<path d="" fill="#7D3CAE" transform="translate(0,0)"/>
<path d="" fill="#8443B6" transform="translate(0,0)"/>
<path d="" fill="#8440B6" transform="translate(0,0)"/>
<path d="" fill="#8343B0" transform="translate(0,0)"/>
<path d="" fill="#8D4EB6" transform="translate(0,0)"/>
<path d="" fill="#8645AD" transform="translate(0,0)"/>
<path d="" fill="#8141AE" transform="translate(0,0)"/>
<path d="" fill="#8342AF" transform="translate(0,0)"/>
<path d="" fill="#8141AF" transform="translate(0,0)"/>
<path d="" fill="#7D3FAD" transform="translate(0,0)"/>
<path d="" fill="#8745B0" transform="translate(0,0)"/>
<path d="" fill="#8344AF" transform="translate(0,0)"/>
<path d="" fill="#8240AD" transform="translate(0,0)"/>
<path d="" fill="#803DAF" transform="translate(0,0)"/>
<path d="" fill="#803EB3" transform="translate(0,0)"/>
<path d="" fill="#7F3CB1" transform="translate(0,0)"/>
<path d="" fill="#8341B3" transform="translate(0,0)"/>
<path d="" fill="#813FAD" transform="translate(0,0)"/>
<path d="" fill="#7B3AA9" transform="translate(0,0)"/>
<path d="" fill="#7D3DAB" transform="translate(0,0)"/>
<path d="" fill="#7D3CAE" transform="translate(0,0)"/>
<path d="" fill="#8441B2" transform="translate(0,0)"/>
<path d="" fill="#8240B2" transform="translate(0,0)"/>
<path d="" fill="#7F39AF" transform="translate(0,0)"/>
<path d="" fill="#8041AF" transform="translate(0,0)"/>
<path d="" fill="#8441B3" transform="translate(0,0)"/>
<path d="" fill="#7F3FB0" transform="translate(0,0)"/>
<path d="" fill="#8241B2" transform="translate(0,0)"/>
<path d="" fill="#8242B3" transform="translate(0,0)"/>
<path d="" fill="#7F3EB3" transform="translate(0,0)"/>
<path d="" fill="#7F40AB" transform="translate(0,0)"/>
<path d="" fill="#8343B3" transform="translate(0,0)"/>
<path d="" fill="#853FB6" transform="translate(0,0)"/>
<path d="" fill="#8443B0" transform="translate(0,0)"/>
<path d="" fill="#7D3DAD" transform="translate(0,0)"/>
<path d="" fill="#8140AC" transform="translate(0,0)"/>
<path d="" fill="#803BAD" transform="translate(0,0)"/>
<path d="" fill="#8641B6" transform="translate(0,0)"/>
<path d="" fill="#813FAE" transform="translate(0,0)"/>
<path d="" fill="#8341B1" transform="translate(0,0)"/>
<path d="" fill="#803FB1" transform="translate(0,0)"/>
<path d="" fill="#8848B4" transform="translate(0,0)"/>
<path d="" fill="#7F3BAF" transform="translate(0,0)"/>
<path d="" fill="#7F3FAE" transform="translate(0,0)"/>
<path d="" fill="#7F3BAE" transform="translate(0,0)"/>
<path d="" fill="#813DB3" transform="translate(0,0)"/>
<path d="" fill="#8040B1" transform="translate(0,0)"/>
<path d="" fill="#853FB7" transform="translate(0,0)"/>
<path d="" fill="#8140AD" transform="translate(0,0)"/>
<path d="" fill="#7E3EAE" transform="translate(0,0)"/>
<path d="" fill="#803CAE" transform="translate(0,0)"/>
<path d="" fill="#7D3DAB" transform="translate(0,0)"/>
<path d="" fill="#773BA6" transform="translate(0,0)"/>
<path d="" fill="#8749B7" transform="translate(0,0)"/>
<path d="" fill="#7F3DB2" transform="translate(0,0)"/>
<path d="" fill="#8645B3" transform="translate(0,0)"/>
<path d="" fill="#8748B2" transform="translate(0,0)"/>
<path d="" fill="#8446B0" transform="translate(0,0)"/>
<path d="" fill="#8847B5" transform="translate(0,0)"/>
<path d="" fill="#8444B1" transform="translate(0,0)"/>
<path d="" fill="#7F3BB2" transform="translate(0,0)"/>
<path d="" fill="#7F3CB0" transform="translate(0,0)"/>
<path d="" fill="#7A3AAB" transform="translate(0,0)"/>
<path d="" fill="#773BA5" transform="translate(0,0)"/>
<path d="" fill="#8647B6" transform="translate(0,0)"/>
<path d="" fill="#8645B1" transform="translate(0,0)"/>
<path d="" fill="#793CA6" transform="translate(0,0)"/>
<path d="" fill="#8845B5" transform="translate(0,0)"/>
<path d="" fill="#7E3AAE" transform="translate(0,0)"/>
<path d="" fill="#7E3CB0" transform="translate(0,0)"/>
<path d="" fill="#7837AC" transform="translate(0,0)"/>
<path d="" fill="#8544B5" transform="translate(0,0)"/>
<path d="" fill="#7D3DAA" transform="translate(0,0)"/>
<path d="" fill="#8547B3" transform="translate(0,0)"/>
<path d="" fill="#7F3AAC" transform="translate(0,0)"/>
<path d="" fill="#7C3CAF" transform="translate(0,0)"/>
<path d="" fill="#7D3DB0" transform="translate(0,0)"/>
<path d="" fill="#8744B4" transform="translate(0,0)"/>
<path d="" fill="#8445B2" transform="translate(0,0)"/>
<path d="" fill="#8741B3" transform="translate(0,0)"/>
<path d="" fill="#8543B5" transform="translate(0,0)"/>
<path d="" fill="#8645B4" transform="translate(0,0)"/>
<path d="" fill="#8241B8" transform="translate(0,0)"/>
<path d="" fill="#8747B4" transform="translate(0,0)"/>
<path d="" fill="#8546B1" transform="translate(0,0)"/>
<path d="" fill="#8747B0" transform="translate(0,0)"/>
<path d="" fill="#8643B3" transform="translate(0,0)"/>
<path d="" fill="#8546AF" transform="translate(0,0)"/>
<path d="" fill="#8444B3" transform="translate(0,0)"/>
<path d="" fill="#8541B0" transform="translate(0,0)"/>
</svg>
